<svg width="1478" height="134" viewBox="0 0 1478 134" fill="none" xmlns="http://www.w3.org/2000/svg">
<path d="M-0.000160843 3.24018H41.5798C48.8998 3.24018 55.4998 3.90017 61.3798 5.22017C67.2598 6.54017 72.2998 8.70017 76.4998 11.7002C80.6998 14.7002 83.9398 18.5402 86.2198 23.2202C88.4998 27.9002 89.6398 33.5402 89.6398 40.1402C89.6398 47.2202 88.3198 53.1602 85.6798 57.9602C83.0398 62.7602 79.4398 66.6602 74.8798 69.6602C70.4398 72.5402 65.2198 74.6402 59.2198 75.9602C53.2198 77.2802 46.8598 77.9402 40.1398 77.9402H22.6798V130.68H-0.000160843V3.24018ZM38.5198 58.8602C42.2398 58.8602 45.7798 58.6202 49.1398 58.1402C52.4998 57.5402 55.4998 56.5802 58.1398 55.2602C60.7798 53.8202 62.8798 51.9002 64.4398 49.5002C65.9998 47.1002 66.7798 43.9802 66.7798 40.1402C66.7798 36.4202 65.9998 33.4202 64.4398 31.1402C62.8798 28.7402 60.7798 26.8802 58.1398 25.5602C55.6198 24.2402 52.6798 23.4002 49.3198 23.0402C46.0798 22.5602 42.7198 22.3202 39.2398 22.3202H22.6798V58.8602H38.5198ZM109.143 66.6002C109.143 56.4002 110.823 47.2202 114.183 39.0602C117.663 30.7802 122.403 23.7602 128.403 18.0002C134.523 12.2402 141.723 7.80017 150.003 4.68017C158.403 1.56017 167.523 0.000173807 177.363 0.000173807C187.323 0.000173807 196.503 1.56017 204.903 4.68017C213.303 7.80017 220.563 12.2402 226.683 18.0002C232.803 23.7602 237.543 30.7802 240.903 39.0602C244.383 47.2202 246.123 56.4002 246.123 66.6002C246.123 76.5602 244.383 85.6802 240.903 93.9602C237.543 102.12 232.803 109.2 226.683 115.2C220.563 121.08 213.303 125.7 204.903 129.06C196.503 132.3 187.323 133.92 177.363 133.92C167.523 133.92 158.403 132.3 150.003 129.06C141.723 125.7 134.523 121.08 128.403 115.2C122.403 109.2 117.663 102.12 114.183 93.9602C110.823 85.6802 109.143 76.5602 109.143 66.6002ZM133.803 66.6002C133.803 73.4402 134.823 79.7402 136.863 85.5002C139.023 91.1402 142.023 96.0602 145.863 100.26C149.823 104.46 154.443 107.76 159.723 110.16C165.123 112.44 171.063 113.58 177.543 113.58C184.023 113.58 189.963 112.44 195.363 110.16C200.763 107.76 205.383 104.46 209.223 100.26C213.183 96.0602 216.183 91.1402 218.223 85.5002C220.383 79.7402 221.463 73.4402 221.463 66.6002C221.463 60.0002 220.383 53.8802 218.223 48.2402C216.183 42.6002 213.243 37.6802 209.403 33.4802C205.563 29.2802 200.943 25.9802 195.543 23.5802C190.143 21.1802 184.143 19.9802 177.543 19.9802C170.943 19.9802 164.943 21.1802 159.543 23.5802C154.263 25.9802 149.703 29.2802 145.863 33.4802C142.023 37.6802 139.023 42.6002 136.863 48.2402C134.823 53.8802 133.803 60.0002 133.803 66.6002ZM273.417 3.24018H296.097V110.52H350.277V130.68H273.417V3.24018ZM370.751 3.24018H393.431V130.68H370.751V3.24018ZM518.931 33.1202C515.571 28.5602 511.191 25.2602 505.791 23.2202C500.391 21.0602 495.111 19.9802 489.951 19.9802C483.351 19.9802 477.351 21.1802 471.951 23.5802C466.551 25.9802 461.871 29.2802 457.911 33.4802C454.071 37.6802 451.071 42.6002 448.911 48.2402C446.871 53.8802 445.851 60.0002 445.851 66.6002C445.851 73.5602 446.871 79.9202 448.911 85.6802C450.951 91.4402 453.831 96.4202 457.551 100.62C461.391 104.7 465.951 107.88 471.231 110.16C476.511 112.44 482.451 113.58 489.051 113.58C495.891 113.58 501.951 112.26 507.231 109.62C512.511 106.86 516.771 103.26 520.011 98.8202L538.191 111.6C532.551 118.68 525.651 124.2 517.491 128.16C509.331 132 499.791 133.92 488.871 133.92C478.911 133.92 469.731 132.3 461.331 129.06C453.051 125.7 445.911 121.08 439.911 115.2C433.911 109.2 429.231 102.12 425.871 93.9602C422.511 85.6802 420.831 76.5602 420.831 66.6002C420.831 56.4002 422.571 47.2202 426.051 39.0602C429.651 30.7802 434.511 23.7602 440.631 18.0002C446.871 12.2402 454.191 7.80017 462.591 4.68017C470.991 1.56017 480.111 0.000173807 489.951 0.000173807C494.031 0.000173807 498.291 0.420172 502.731 1.26017C507.171 1.98017 511.431 3.18017 515.511 4.86016C519.591 6.42017 523.431 8.40017 527.031 10.8002C530.631 13.2002 533.691 16.0802 536.211 19.4402L518.931 33.1202ZM586.354 75.4202L538.474 3.24018H566.194L598.234 56.8802L630.634 3.24018H656.914L609.034 75.4202V130.68H586.354V75.4202ZM810.932 33.1202C807.572 28.5602 803.192 25.2602 797.792 23.2202C792.392 21.0602 787.112 19.9802 781.952 19.9802C775.352 19.9802 769.352 21.1802 763.952 23.5802C758.552 25.9802 753.872 29.2802 749.912 33.4802C746.072 37.6802 743.072 42.6002 740.912 48.2402C738.872 53.8802 737.852 60.0002 737.852 66.6002C737.852 73.5602 738.872 79.9202 740.912 85.6802C742.952 91.4402 745.832 96.4202 749.552 100.62C753.392 104.7 757.952 107.88 763.232 110.16C768.512 112.44 774.452 113.58 781.052 113.58C787.892 113.58 793.952 112.26 799.232 109.62C804.512 106.86 808.772 103.26 812.012 98.8202L830.192 111.6C824.552 118.68 817.652 124.2 809.492 128.16C801.332 132 791.792 133.92 780.872 133.92C770.912 133.92 761.732 132.3 753.332 129.06C745.052 125.7 737.912 121.08 731.912 115.2C725.912 109.2 721.232 102.12 717.872 93.9602C714.512 85.6802 712.832 76.5602 712.832 66.6002C712.832 56.4002 714.572 47.2202 718.052 39.0602C721.652 30.7802 726.512 23.7602 732.632 18.0002C738.872 12.2402 746.192 7.80017 754.592 4.68017C762.992 1.56017 772.112 0.000173807 781.952 0.000173807C786.032 0.000173807 790.292 0.420172 794.732 1.26017C799.172 1.98017 803.432 3.18017 807.512 4.86016C811.592 6.42017 815.432 8.40017 819.032 10.8002C822.632 13.2002 825.692 16.0802 828.212 19.4402L810.932 33.1202ZM887.535 3.24018H907.155L962.055 130.68H936.135L924.255 101.52H868.995L857.475 130.68H832.095L887.535 3.24018ZM916.335 82.0802L896.715 30.2402L876.735 82.0802H916.335ZM980.065 3.24018H1010.12L1069.34 98.6402H1069.7V3.24018H1092.38V130.68H1063.58L1003.1 32.2202H1002.74V130.68H980.065V3.24018ZM1165.87 3.24018H1185.49L1240.39 130.68H1214.47L1202.59 101.52H1147.33L1135.81 130.68H1110.43L1165.87 3.24018ZM1194.67 82.0802L1175.05 30.2402L1155.07 82.0802H1194.67ZM1258.4 3.24018H1302.68C1308.68 3.24018 1314.5 3.90017 1320.14 5.22017C1325.78 6.42017 1330.76 8.46017 1335.08 11.3402C1339.52 14.2202 1343.06 18.0002 1345.7 22.6802C1348.34 27.3602 1349.66 33.0602 1349.66 39.7802C1349.66 49.0202 1347.02 56.5802 1341.74 62.4602C1336.58 68.2202 1329.5 72.1202 1320.5 74.1602L1354.52 130.68H1327.16L1297.64 76.6802H1281.08V130.68H1258.4V3.24018ZM1299.62 58.1402C1302.86 58.1402 1306.1 57.9002 1309.34 57.4202C1312.58 56.9402 1315.46 56.0402 1317.98 54.7202C1320.62 53.4002 1322.78 51.5402 1324.46 49.1402C1326.14 46.6202 1326.98 43.4402 1326.98 39.6002C1326.98 36.1202 1326.2 33.3002 1324.64 31.1402C1323.08 28.8602 1321.1 27.0602 1318.7 25.7402C1316.3 24.4202 1313.54 23.5202 1310.42 23.0402C1307.42 22.5602 1304.48 22.3202 1301.6 22.3202H1281.08V58.1402H1299.62ZM1406.56 75.4202L1358.68 3.24018H1386.4L1418.44 56.8802L1450.84 3.24018H1477.12L1429.24 75.4202V130.68H1406.56V75.4202Z" fill="#0F170E"/>
</svg>
